<svg version="1.1" id="logo" xmlns="http://www.w3.org/2000/svg" xmlns:xlink="http://www.w3.org/1999/xlink" x="0px" y="0px" viewBox="0 0 389 96" width="389" height="96" xml:space="preserve">
    <path class="st0" d="M133.3,55.4c0.7,0.7,1.1,1.6,1.1,2.7c0,1-0.4,1.9-1.1,2.6c-0.7,0.7-1.6,1-2.7,1h-2.8v8.6c0,1.2-0.4,2.1-1.2,2.9
        c-0.8,0.8-1.7,1.2-2.9,1.2c-1.1,0-2-0.4-2.8-1.2s-1.1-1.7-1.1-2.9v-8.6h-17.3c-1,0-1.9-0.4-2.7-1.2s-1.3-1.7-1.3-2.8
        c0-1,0.3-1.9,1-2.7l21.1-25.8c0.8-1.1,2-1.6,3.3-1.6c1.1,0,2,0.4,2.8,1.2s1.1,1.7,1.1,2.9v22.6h2.8
        C131.7,54.3,132.6,54.6,133.3,55.4 M109.1,54.3h10.8V41L109.1,54.3z"/>
    <path class="st0" d="M184.5,70.7c0,1.2-0.4,2.1-1.1,2.8c-0.8,0.7-1.6,1.1-2.6,1.1c-0.8,0-1.5-0.2-2.2-0.7c-0.6-0.5-1.1-1.2-1.5-2
        l-3.5-8.1h-19.9l-3.5,8.1c-0.3,0.8-0.8,1.5-1.4,2s-1.3,0.7-2.1,0.7c-1.2,0-2-0.3-2.6-0.9c-0.6-0.6-0.9-1.5-0.9-2.5
        c0-0.4,0.1-0.8,0.2-1.3L160,30c0.4-0.9,0.9-1.6,1.6-2.1s1.5-0.7,2.4-0.6c0.8,0,1.5,0.2,2.2,0.7s1.2,1.1,1.5,2l16.4,39.1
        C184.4,69.7,184.5,70.2,184.5,70.7 M157.1,56.2h13.3l-6.7-15.6L157.1,56.2z"/>
    <path class="st0" d="M284,28.7c0.8,0.8,1.2,1.7,1.2,2.9v38.6c0,1.2-0.4,2.1-1.1,2.9c-0.8,0.8-1.8,1.2-3,1.2s-2.3-0.4-3-1.1
        c-0.8-0.8-1.2-1.7-1.2-2.9V43.4l-11,16.8c-0.4,0.5-1,1-1.5,1.3c-0.6,0.3-1.2,0.5-1.8,0.4c-0.6,0-1.2-0.1-1.7-0.4
        c-0.6-0.3-1.1-0.8-1.5-1.3l-11-17.4v27.5c0,1.2-0.4,2.2-1.1,2.9c-0.7,0.8-1.6,1.1-2.8,1.1c-1.1,0-2-0.4-2.7-1.2s-1.1-1.7-1.1-2.9
        V31.6c0-1.1,0.4-2.1,1.2-2.9c0.8-0.8,1.8-1.2,3-1.2c0.7,0,1.3,0.2,2,0.5s1.2,0.8,1.5,1.3l14.5,22.3l14.9-22.3c0.4-0.5,0.8-1,1.4-1.3
        s1.2-0.5,1.8-0.5C282.2,27.6,283.2,28,284,28.7"/>
    <path class="st0" d="M324.2,67.8c0.8,0.8,1.2,1.7,1.2,2.7c0,1.1-0.4,2-1.2,2.7c-0.8,0.7-1.7,1.1-2.9,1.1H299c-1.2,0-2.1-0.4-2.9-1.2
        s-1.2-1.7-1.2-2.9V31.7c0-1.2,0.4-2.1,1.2-2.9c0.8-0.8,1.7-1.2,2.9-1.2h22.3c1.2,0,2.1,0.4,2.9,1.1c0.8,0.7,1.2,1.7,1.2,2.8
        s-0.4,2-1.1,2.7c-0.8,0.7-1.7,1-2.9,1h-18.1v11.3h15.1c1.2,0,2.1,0.4,2.9,1.1c0.8,0.7,1.2,1.7,1.2,2.8s-0.4,2-1.1,2.7
        c-0.8,0.7-1.7,1-2.9,1h-15.1v12.3h18.1C322.5,66.6,323.4,67,324.2,67.8"/>
    <path class="st0" d="M366.7,30.7c3,2.1,5.3,4.9,6.9,8.4s2.4,7.5,2.4,11.8c0,4.4-0.8,8.3-2.4,11.8s-3.9,6.3-6.9,8.4
        c-3,2.1-6.6,3.1-10.8,3.1H340c-1.2,0-2.1-0.4-2.9-1.2s-1.2-1.7-1.2-2.9V31.6c0-1.2,0.4-2.1,1.2-2.9c0.8-0.8,1.7-1.2,2.9-1.2h15.9
        C360.1,27.6,363.7,28.7,366.7,30.7 M364.2,62.2c2-3,3-6.7,3-11.2s-1-8.3-3-11.2c-2-3-5-4.4-9-4.4h-11v31.3h11
        C359.2,66.6,362.2,65.1,364.2,62.2"/>
    <path class="st0" d="M230.8,68l-7.7-14.5c0,0,0,0,0.1,0c1.9-1.2,3.5-2.9,4.7-5s1.8-4.3,1.8-6.5c0-2.7-0.6-5.2-1.8-7.3
        c-1.2-2.2-2.9-3.9-4.9-5.1c-2-1.2-4.2-1.9-6.5-1.9h-19.2c-1.2,0-2.1,0.4-2.9,1.2s-1.2,1.7-1.2,2.9v38.5c0,1.2,0.5,2.1,1.4,2.9
        c1,0.8,2.1,1.2,3.4,1.2c1.1,0,1.9-0.4,2.6-1.1c0.6-0.8,1-1.7,1-2.9V57.5h12.5c0.6,0,1.1,0.1,1.6,0.1l7.8,14.6
        c0.8,1.5,2.3,2.3,3.8,2.3c0.7,0,1.4-0.2,2-0.5C231.1,72.7,231.9,70.1,230.8,68 M201.4,50.4V35.3H216c0.8,0,1.6,0.3,2.3,0.9
        c0.8,0.6,1.4,1.5,1.9,2.5s0.7,2.2,0.7,3.4c0,1.5-0.2,2.8-0.7,4.1s-1.1,2.3-1.9,3c-0.8,0.8-1.5,1.1-2.3,1.1L201.4,50.4L201.4,50.4z"
        />
    <g>
        <g>
            <linearGradient id="SVGID_2_" gradientUnits="userSpaceOnUse" x1="15.7" y1="-337.25" x2="82.9" y2="-337.25" gradientTransform="matrix(1 0 0 -1 0 -314)">
                <stop  offset="0" style="stop-color:#F26327"/>
                <stop  offset="0.2061" style="stop-color:#F25927"/>
                <stop  offset="0.5593" style="stop-color:#F24F27"/>
                <stop  offset="0.9997" style="stop-color:#F24C27"/>
            </linearGradient>
            <polygon id="SVGID_1_" class="st1" points="15.7,16.4 15.7,30.1 82.9,26.4 82.9,16.4"/>
        </g>
        <g>
            <defs>
                <polygon id="SVGID_3_" points="15.7,16.4 15.7,30.1 82.9,26.4 82.9,16.4"/>
            </defs>
            <clipPath id="SVGID_4_">
                <use xlink:href="#SVGID_3_"  style="overflow:visible;"/>
            </clipPath>
            <linearGradient id="SVGID_6_" gradientUnits="userSpaceOnUse" x1="15.7" y1="-337.25" x2="82.9" y2="-337.25" gradientTransform="matrix(1 0 0 -1 0 -314)">
                <stop  offset="0" style="stop-color:#F26327"/>
                <stop  offset="0.2061" style="stop-color:#F25927"/>
                <stop  offset="0.5593" style="stop-color:#F24F27"/>
                <stop  offset="0.9997" style="stop-color:#F24C27"/>
            </linearGradient>
            <rect x="15.7" y="16.4" class="st2" width="67.2" height="13.7"/>
        </g>
    </g>
    <g>
        <g>
            <linearGradient id="SVGID_7_" gradientUnits="userSpaceOnUse" x1="15.7" y1="-354.5" x2="82.9" y2="-354.5" gradientTransform="matrix(1 0 0 -1 0 -314)">
                <stop  offset="0" style="stop-color:#F26327"/>
                <stop  offset="0.4404" style="stop-color:#F26027"/>
                <stop  offset="0.7936" style="stop-color:#F25627"/>
                <stop  offset="0.9997" style="stop-color:#F24C27"/>
            </linearGradient>
            <polygon id="SVGID_5_" class="st3" points="15.7,35.5 15.7,45.5 82.9,49.2 82.9,31.8"/>
        </g>
        <g>
            <defs>
                <polygon id="SVGID_8_" points="15.7,35.5 15.7,45.5 82.9,49.2 82.9,31.8"/>
            </defs>
            <clipPath id="SVGID_9_">
                <use xlink:href="#SVGID_8_"  style="overflow:visible;"/>
            </clipPath>
            <linearGradient id="SVGID_10_" gradientUnits="userSpaceOnUse" x1="15.7" y1="-354.5" x2="82.9" y2="-354.5" gradientTransform="matrix(1 0 0 -1 0 -314)">
                <stop  offset="0" style="stop-color:#F26327"/>
                <stop  offset="0.2061" style="stop-color:#F25927"/>
                <stop  offset="0.5593" style="stop-color:#F24F27"/>
                <stop  offset="0.9997" style="stop-color:#F24C27"/>
            </linearGradient>
            <rect x="15.7" y="31.8" class="st4" width="67.2" height="17.4"/>
        </g>
    </g>
    <g>
        <g>
            <defs>
                <polygon id="SVGID_11_" points="15.7,68.9 82.9,65.2 82.9,55.2 15.7,51.5"/>
            </defs>
            <clipPath id="SVGID_12_">
                <use xlink:href="#SVGID_11_"  style="overflow:visible;"/>
            </clipPath>
            <linearGradient id="SVGID_13_" gradientUnits="userSpaceOnUse" x1="15.7" y1="-374.2" x2="82.9" y2="-374.2" gradientTransform="matrix(1 0 0 -1 0 -314)">
                <stop  offset="0" style="stop-color:#037E8C"/>
                <stop  offset="0.9997" style="stop-color:#126679"/>
            </linearGradient>
            <rect x="15.7" y="51.5" class="st5" width="67.2" height="17.4"/>
        </g>
    </g>
    <g>
        <g>
            <defs>
                <polygon id="SVGID_14_" points="15.7,74.3 15.7,84.3 82.9,84.3 82.9,70.6"/>
            </defs>
            <clipPath id="SVGID_15_">
                <use xlink:href="#SVGID_14_"  style="overflow:visible;"/>
            </clipPath>
            <linearGradient id="SVGID_16_" gradientUnits="userSpaceOnUse" x1="15.7" y1="-391.45" x2="82.9" y2="-391.45" gradientTransform="matrix(1 0 0 -1 0 -314)">
                <stop  offset="0" style="stop-color:#037E8C"/>
                <stop  offset="1" style="stop-color:#126679"/>
            </linearGradient>
            <rect x="15.7" y="70.6" class="st6" width="67.2" height="13.7"/>
        </g>
    </g>
</svg>